<mxfile host="app.diagrams.net" modified="2022-01-16T14:36:00.105Z" agent="5.0 (Macintosh; Intel Mac OS X 10_15_7) AppleWebKit/537.36 (KHTML, like Gecko) Chrome/97.0.4692.71 Safari/537.36" etag="nA0kOe_6HL-__r-w5R2B" version="16.2.7" type="github">
  <diagram id="ty1Ibm1rMVi4FU8MyVZN" name="第 1 页">
    <mxGraphModel dx="1186" dy="739" grid="1" gridSize="10" guides="1" tooltips="1" connect="1" arrows="1" fold="1" page="1" pageScale="1" pageWidth="827" pageHeight="1169" math="0" shadow="0">
      <root>
        <mxCell id="0" />
        <mxCell id="1" parent="0" />
        <mxCell id="i_C4-oh3YXJx9b0rRWEi-3" value="" style="edgeStyle=orthogonalEdgeStyle;rounded=0;orthogonalLoop=1;jettySize=auto;html=1;" edge="1" parent="1" source="i_C4-oh3YXJx9b0rRWEi-1" target="i_C4-oh3YXJx9b0rRWEi-2">
          <mxGeometry relative="1" as="geometry" />
        </mxCell>
        <mxCell id="i_C4-oh3YXJx9b0rRWEi-4" value="跳转到" style="edgeLabel;html=1;align=center;verticalAlign=middle;resizable=0;points=[];" vertex="1" connectable="0" parent="i_C4-oh3YXJx9b0rRWEi-3">
          <mxGeometry x="-0.325" y="-1" relative="1" as="geometry">
            <mxPoint as="offset" />
          </mxGeometry>
        </mxCell>
        <mxCell id="i_C4-oh3YXJx9b0rRWEi-1" value="https://example.com" style="rounded=0;whiteSpace=wrap;html=1;" vertex="1" parent="1">
          <mxGeometry x="354" y="80" width="120" height="60" as="geometry" />
        </mxCell>
        <mxCell id="i_C4-oh3YXJx9b0rRWEi-6" value="" style="edgeStyle=orthogonalEdgeStyle;rounded=0;orthogonalLoop=1;jettySize=auto;html=1;" edge="1" parent="1" source="i_C4-oh3YXJx9b0rRWEi-2" target="i_C4-oh3YXJx9b0rRWEi-5">
          <mxGeometry relative="1" as="geometry" />
        </mxCell>
        <mxCell id="i_C4-oh3YXJx9b0rRWEi-2" value="/#/blue" style="whiteSpace=wrap;html=1;rounded=0;" vertex="1" parent="1">
          <mxGeometry x="354" y="220" width="120" height="60" as="geometry" />
        </mxCell>
        <mxCell id="i_C4-oh3YXJx9b0rRWEi-8" value="" style="edgeStyle=orthogonalEdgeStyle;rounded=0;orthogonalLoop=1;jettySize=auto;html=1;" edge="1" parent="1" source="i_C4-oh3YXJx9b0rRWEi-5" target="i_C4-oh3YXJx9b0rRWEi-7">
          <mxGeometry relative="1" as="geometry" />
        </mxCell>
        <mxCell id="i_C4-oh3YXJx9b0rRWEi-9" value="刷新页面" style="edgeLabel;html=1;align=center;verticalAlign=middle;resizable=0;points=[];" vertex="1" connectable="0" parent="i_C4-oh3YXJx9b0rRWEi-8">
          <mxGeometry x="-0.3047" y="4" relative="1" as="geometry">
            <mxPoint as="offset" />
          </mxGeometry>
        </mxCell>
        <mxCell id="i_C4-oh3YXJx9b0rRWEi-11" value="" style="edgeStyle=orthogonalEdgeStyle;rounded=0;orthogonalLoop=1;jettySize=auto;html=1;" edge="1" parent="1" source="i_C4-oh3YXJx9b0rRWEi-5" target="i_C4-oh3YXJx9b0rRWEi-10">
          <mxGeometry relative="1" as="geometry" />
        </mxCell>
        <mxCell id="i_C4-oh3YXJx9b0rRWEi-12" value="直接输入" style="edgeLabel;html=1;align=center;verticalAlign=middle;resizable=0;points=[];" vertex="1" connectable="0" parent="i_C4-oh3YXJx9b0rRWEi-11">
          <mxGeometry x="-0.4" y="-1" relative="1" as="geometry">
            <mxPoint as="offset" />
          </mxGeometry>
        </mxCell>
        <mxCell id="i_C4-oh3YXJx9b0rRWEi-13" style="edgeStyle=orthogonalEdgeStyle;rounded=0;orthogonalLoop=1;jettySize=auto;html=1;exitX=0;exitY=0.5;exitDx=0;exitDy=0;entryX=0;entryY=0.5;entryDx=0;entryDy=0;" edge="1" parent="1" source="i_C4-oh3YXJx9b0rRWEi-5" target="i_C4-oh3YXJx9b0rRWEi-10">
          <mxGeometry relative="1" as="geometry">
            <Array as="points">
              <mxPoint x="230" y="390" />
              <mxPoint x="230" y="530" />
            </Array>
          </mxGeometry>
        </mxCell>
        <mxCell id="i_C4-oh3YXJx9b0rRWEi-14" value="浏览器历史返回" style="edgeLabel;html=1;align=center;verticalAlign=middle;resizable=0;points=[];" vertex="1" connectable="0" parent="i_C4-oh3YXJx9b0rRWEi-13">
          <mxGeometry x="-0.5258" relative="1" as="geometry">
            <mxPoint as="offset" />
          </mxGeometry>
        </mxCell>
        <mxCell id="i_C4-oh3YXJx9b0rRWEi-5" value="跳转类型" style="rhombus;whiteSpace=wrap;html=1;rounded=0;" vertex="1" parent="1">
          <mxGeometry x="374" y="350" width="80" height="80" as="geometry" />
        </mxCell>
        <mxCell id="i_C4-oh3YXJx9b0rRWEi-17" style="edgeStyle=orthogonalEdgeStyle;rounded=0;orthogonalLoop=1;jettySize=auto;html=1;exitX=0.5;exitY=1;exitDx=0;exitDy=0;entryX=1;entryY=0.5;entryDx=0;entryDy=0;" edge="1" parent="1" source="i_C4-oh3YXJx9b0rRWEi-7" target="i_C4-oh3YXJx9b0rRWEi-15">
          <mxGeometry relative="1" as="geometry" />
        </mxCell>
        <mxCell id="i_C4-oh3YXJx9b0rRWEi-7" value="不会触发hashchange&lt;br&gt;使用load事件代替" style="whiteSpace=wrap;html=1;rounded=0;" vertex="1" parent="1">
          <mxGeometry x="540" y="500" width="120" height="60" as="geometry" />
        </mxCell>
        <mxCell id="i_C4-oh3YXJx9b0rRWEi-16" value="" style="edgeStyle=orthogonalEdgeStyle;rounded=0;orthogonalLoop=1;jettySize=auto;html=1;" edge="1" parent="1" source="i_C4-oh3YXJx9b0rRWEi-10" target="i_C4-oh3YXJx9b0rRWEi-15">
          <mxGeometry relative="1" as="geometry" />
        </mxCell>
        <mxCell id="i_C4-oh3YXJx9b0rRWEi-10" value="触发hashchange事件" style="whiteSpace=wrap;html=1;rounded=0;" vertex="1" parent="1">
          <mxGeometry x="354" y="500" width="120" height="60" as="geometry" />
        </mxCell>
        <mxCell id="i_C4-oh3YXJx9b0rRWEi-15" value="解析hash，执行对应动作" style="whiteSpace=wrap;html=1;rounded=0;" vertex="1" parent="1">
          <mxGeometry x="354" y="640" width="120" height="60" as="geometry" />
        </mxCell>
      </root>
    </mxGraphModel>
  </diagram>
</mxfile>
